<?xml version="1.0" encoding="UTF-8"?>
<svg id="Ebene_1" data-name="Ebene 1" xmlns="http://www.w3.org/2000/svg" viewBox="0 0 1057.626 97.6561">
  <defs>
    <style>
      .cls-1 {
        fill: #444;
      }

      .cls-2 {
        fill: #b80000;
      }
    </style>
  </defs>
  <path class="cls-2" d="M169.6865,93.4216c-13.9753,5.2162-39.8869,6.3032-51.001-3.5276l3.4286-19.4577c.9148-1.1292,4.8464-1.1477,5.6107-.0528,1.2522,6.2738,3.2943,13.6871,9.2497,17.3787,7.6695,4.7542,18.0336,4.0055,25.1458-1.7524,6.8145-5.5169,6.8634-16.6957-.2555-22.0981l-21.4125-16.2497c-6.6028-5.0108-10.3786-12.0317-10.2595-19.684.1226-7.8714,3.5968-14.6172,10.2651-19.7677,12.9744-10.0213,40.2624-10.9837,54.9829-2.254l-3.9609,19.3357c-.3908,1.2242-4.7881,1.1167-5.472.1923.4001-10.5765-6.829-18.8393-17.5957-18.6673-6.0839.0972-11.7205,2.0241-15.4659,7.0755-12.9359,17.4469,21.6393,27.6892,30.8186,42.2524,8.7664,13.9082,1.5059,31.4599-14.0785,37.2767Z"/>
  <path class="cls-2" d="M199.8609,45.9513c-.7481-5.7502-6.0706-4.2101-9.0066-5.2786-5.3213-1.9366,19.1856-9.4233,20.4234-9.2926,2.4694.6778,4.5114,1.7828,4.7424,3.731l5.0302,42.4302,20.0563-42.5018c1.7837-3.7799,8.538-2.6698,12.1881-2.325l6.2395,47.0445c8.5586-14.8525,18.2364-27.3559,11.5335-45.2076,2.4837-3.7221,8.4243-3.768,11.7085-2.1667,11.5815,5.6469-.3783,24.0423-5.4609,31.7589l-20.4332,31.0225c-3.7072.5966-7.2224.685-11.2334.3634l-6.0371-39.8229-21.0975,39.8441c-4.5662.2895-7.9249.3172-12.2036-.0212l-6.4498-49.5781Z"/>
  <path class="cls-1" d="M478.344,74.948c3.0143,8.7546,10.3979,14.3614,18.7773,15.3035,10.2677,1.1544,18.5948-3.1033,27.7394-8.1145.3704,5.8052-3.9587,9.0859-8.4215,10.9791-21.7576,9.23-54.7694,5.6295-60.7479-22.4198-7.2035-33.7963,20.4804-63.5832,51.4795-64.4228,10.8033-.2926,21.4916-.2929,31.2417,5.3106l-4.7438,21.965c-10.2881,6.0875,2.8335-19.6662-19.1951-21.3173-25.1867-1.8878-46.3584,33.008-36.1296,62.7162Z"/>
  <path class="cls-1" d="M1057.626,86.1214c-2.5973,7.4307-21.8368,15.756-27.4494,8.1658-1.4549-1.9676-2.4307-6.2995-1.8343-8.8728l6.7251-29.0141c.246-1.0612-.4815-3.7543-1.3492-4.3348-1.0415-.6968-4.1021-.6192-5.3439.0933-15.254,8.7521-18.7046,26.996-21.8142,43.4793l-16.4813-.1071,8.4904-41.2289c.2315-1.1241-.3056-4.1581-1.3175-4.5644-4.1527-1.6674-8.0287,1.7601-6.9926-1.0441l.7688-2.0807c3.2884-1.1247,26.5246-10.655,25.1867-2.2674l-2.599,16.2938c8.0188-10.1394,22.781-24.6474,35.344-18.2676,3.493,1.7738,4.7041,6.5774,3.7203,10.6587l-7.5467,31.3092c-.1824.7567.3419,3.0747.7444,3.684.5034.7621,2.6232,1.023,3.5688.8652,2.8036-1.232,4.7988-2.8388,8.1796-2.7675Z"/>
  <path class="cls-1" d="M703.7674,86.8893l6.5743-29.6412c.2557-1.1527-.1268-3.3144-.557-4.1541-1.7918-3.497-9.1678-.8201-12.418,3.5755-11.4093,15.4298-11.3315,20.2989-14.9573,39.0677l-16.2434-.4005,8.0609-41.8403c.1786-.9268-.6476-3.916-1.534-4.0402s-2.2681-.1334-3.6994-.0809l-2.4899.0913c-.6348.0233-.1718-1.4311.1352-2.7275,4.0494-1.1093,26.2637-11.4068,24.859-1.366l-2.0724,14.8131c3.831-4.3459,7.1158-8.3713,11.194-12.3761,5.7258-5.6226,18.9111-10.4621,24.72-3.9992,1.6137,1.7954,2.7063,5.7972,2.0473,8.7964l-6.9241,31.5124c-.2111.9609.3659,3.1894.7351,3.7636,2.1703,3.3753,9.0788-3.3277,11.6658-1.78-4.4797,7.5726-12.4829,11.0333-20.285,11.1371-5.1767.0689-10.1214-4.443-8.811-10.3511Z"/>
  <path class="cls-1" d="M634.1749,51.4994c-13.2954,4.9585-21.2762,29.9161-22.0749,44.1165l-16.8742.0539,8.4473-41.4976c.2296-1.1281-.0696-4.0891-1.0629-4.5157-.9926-.4263-3.2575-.4443-4.3574-.1605l-2.2361.5771c-.6322.1631-.4184-2.9981.317-3.2801.9102-.3491,25.3395-10.473,24.6985-3.5061-.4322,4.6978-1.5671,11.8157-2.5006,17.1374,6.9475-8.7996,16.3546-20.1639,29.092-19.8523,5.7806.1414,10.4881,4.8427,9.1427,11.1373l-7.1535,33.4698c-.1599.7482.5953,2.9009,1.1976,3.1997.6051.3002,2.2173.4335,2.9914.2102l7.9034-2.2802c-2.7492,7.3616-20.149,14.6176-26.4255,8.5395-1.5413-1.4926-3.0734-5.6725-2.4754-8.2959l6.8922-30.2376c.2308-1.0124-.4519-3.2273-1.1288-3.9266s-3.459-1.237-4.3929-.8886Z"/>
  <path class="cls-2" d="M376.6732,78.8781c-.7741,19.3214-34.0572,22.7778-49.215,13.303l2.6284-13.4867c.1689-.8665,3.1194-2.0083,3.8377-1.5425.9021.5849,1.916,2.1626,2.3553,3.5646,2.6493,8.4561,10.7801,13.3608,19.1701,9.7283,2.2593-.9781,4.6834-4.3942,4.8224-6.6182.1437-2.2981-1.6635-5.9951-3.6731-7.5286l-14.1793-10.8202c-5.0651-3.8651-7.8894-10.1482-7.1719-16.369,2.1563-18.6943,31.3184-21.0099,45.9084-13.3274l-1.9982,14.4833-5.5069.0585c-.4137-8.1447-5.4186-13.2427-13.4051-13.0704-3.4833.0751-6.9182,1.6532-8.2751,4.5045-1.3836,2.9072-.7031,7.697,2.0885,9.9514l16.6145,13.4173c4.132,3.3368,6.2047,8.6262,5.9994,13.752Z"/>
  <path class="cls-2" d="M429.3291,79.8701c-2.8332,19.5879-35.1489,21.0762-48.8343,11.9509l2.8272-13.7956c.6677-.9341,4.8307-.5704,5.0169.5285,1.3518,7.9792,8.4529,14.787,17.2692,13.029,3.163-.6307,5.958-2.677,6.9972-5.487.9924-2.6835-.0806-7.2612-2.6765-9.2805l-14.5136-11.2895c-5.0697-3.9435-7.9543-9.2975-7.4557-15.5208,1.4738-18.3932,30.4184-22.1857,46.299-14.3465l-2.238,14.5535c-1.6941.0413-4.588-.1948-5.8837-.5032-.0918-7.955-5.2561-12.7516-12.9604-12.5888-3.3865.0716-7.2188,1.6416-8.4203,4.3339-1.2999,2.9129-.7502,8.3142,2.0894,10.5335l15.6392,12.2234c4.9311,3.8541,7.7391,9.4737,6.8444,15.6593Z"/>
  <path class="cls-2" d="M325.6975,86.3423c-6.4537,7.467-23.2849,14.9275-30.2411,7.3951-1.7991-1.9481-3.1167-6.3581-2.5068-9.3177l7.9006-38.335c.2005-.9727-.3698-3.1379-1.0475-3.8556s-3.2783-1.0874-4.2742-.9705l-2.7763.3259c-.7334.0861-.643-3.03.1004-3.3808,5.3567-2.5282,14.6747-5.5296,21.2731-6.424,2.9035-.3936,7.6528,1.7827,7.0577,4.5024l-9.6846,44.2611c-.365,1.6682.0995,5.1137,1.1945,6.0833,4.289,3.798,11.6702-5.9931,13.0043-.2842Z"/>
  <path class="cls-1" d="M868.8547,87.3869c3.3035,4.2217,12.1867-3.125,15.492-2.4661-2.4201,7.7489-23.8345,17.8012-31.2353,8.6676-1.8176-2.2431-2.8854-6.8525-2.2679-9.9925l6.9255-35.2175-6.7101-.7548c-.6201-.0698-1.2948-2.0903-.9489-2.5868.3443-.4942,1.4002-1.4158,2.0477-1.6043,21.1435-6.1576,17.7397-22.4078,27.0083-16.3055l-2.7171,14.6269,12.6174.3987c.8664.0274,1.4121,2.9855.9598,3.7317-.5683.9376-2.5607,1.9714-3.7031,1.9749l-11.4845.0355-7.3774,33.8597c-.3273,1.502.5246,4.5221,1.3936,5.6326Z"/>
  <path class="cls-1" d="M809.4305,79.8937c.6091,6.2176,4.8482,10.0571,10.8281,9.999,10.55-.1025,15.1773-6.6552,18.9856-6.1557,4.0391.5298-10.8436,15.4821-30.2399,13.3613-11.3133-1.237-18.5464-10.2672-17.5565-21.8287,2.0719-24.1987,25.8714-39.9839,49.2691-32.7469,1.7541.5426,4.1594,3.1274,4.4082,4.7132.6552,4.1755-2.9531,9.1302-7.6418,8.8271-4.0238-.2601-3.4898-8.6453-9.4596-9.97-11.7444-2.606-20.1681,17.7241-18.5932,33.8007Z"/>
  <path class="cls-1" d="M922.0126,85.6728c-3.4157,8.4108-21.7329,15.663-27.5148,8.6732-1.5444-1.867-2.5193-6.1323-1.9136-9.0067l6.7323-31.9487c.2022-.9596-.3094-3.5258-1.1506-3.7659s-2.4908-.3933-3.7501-.4573l-3.1205-.1584c-.7113-.0361.9408-3.0233,1.7785-3.2422l18.7682-4.9037c.885-.2312,3.5006.4309,4.257.9302.9454.6241,1.5751,3.2602,1.2439,4.7706l-8.2554,37.6459c-.1692.7714.5134,3.1355.9695,3.6716.5752.6762,2.5743,1.0434,3.4226.7304,2.7187-1.0893,5.4589-2.4085,8.5331-2.9391Z"/>
  <path class="cls-2" d="M327.2793,6.7391c3.1634,5.4954-.3025,10.8843-4.6146,13.5055-3.8148,2.3189-10.4008,3.114-13.4538-1.4789-3.1155-4.6869-.3482-10.5243,3.6159-13.2842,3.9948-2.7813,11.4134-4.022,14.4525,1.2576Z"/>
  <path class="cls-1" d="M925.1035,21.9435c-.1641,4.6948-3.6137,7.5889-6.6053,8.6789-3.9586,1.4424-8.6573,1.5065-11.2243-2.7158-1.5206-2.5011-.7757-6.7351,1.1029-9.2709,3.5195-4.7505,11.5412-6.2767,14.8043-3.008,1.0571,1.0589,2.0028,4.0119,1.9223,6.3158Z"/>
  <path class="cls-1" d="M576.0956,42.2472c-12.3101-3.5701-25.103-.3069-34.1379,8.3604-8.6449,8.2931-13.3785,20.8021-10.1414,33.3157,3.7169,14.3678,27.2121,18.4667,44.0958,6.1452,8.3691-6.1077,14.4973-16.0856,14.4441-28.07-.0433-9.7361-5.5505-17.2252-14.2605-19.7512ZM553.0721,92.8621c-11.6509-2.787-3.6278-44.1697,11.2804-47.7139,18.4899-4.3958,6.506,51.9686-11.2804,47.7139Z"/>
  <path class="cls-1" d="M984.1075,59.9649c-.3574-8.3071-5.3391-14.8266-12.7478-17.288-11.5286-3.8301-24.2666-1.2905-33.6729,6.6215-8.4758,7.1293-13.9037,18.7104-12.4893,30.6914.936,7.9299,6.5908,14.2583,14.3241,16.2109,11.097,2.8018,22.8214.3197,31.452-6.9674,8.0997-6.839,13.6534-17.1966,13.1338-29.2684ZM958.728,87.232c-2.3552,3.5762-6.1104,6.8458-11.4161,5.8164-12.8606-2.4949-1.0962-53.3114,15.1548-47.5048,10.542,3.7667,3.4214,30.8163-3.7386,41.6884Z"/>
  <path class="cls-1" d="M788.9063,47.5665c-.8411-2.3801-4.5863-5.1323-7.4712-5.766-22.7227-4.9911-44.7883,11.475-46.4581,34.4993-.7216,9.9503,4.7252,18.0603,14.4658,20.1848,12.972,2.8292,26.4808-2.2664,35.3036-11.624l-2.0857-2.2396c.0862.0925-22.1572,15.3558-28.9613,1.8934-1.9086-3.7764-1.8298-8.6099-1.0101-11.8626,12.7162-.2369,42.1248-8.3685,36.217-25.0853ZM763.3752,47.954c2.672-2.3052,8.5714-4.4118,10.5636-.5555,5.0123,9.7016-8.3525,20.429-20.4932,21.2026,1.0406-7.9591,3.7653-15.3288,9.9296-20.6472Z"/>
  <g>
    <path class="cls-1" d="M45.8378,54.461l-9.2788-.2707,8.5018-42.0011-16.0904-.0576-7.7836,35.2801c-.1699.7699.0281,2.9422.6546,3.4159.7519.5685,2.4714,1.1879,3.6641,1.5288l1.6417.4693c8.6442,2.4711-27.2527,1.749-24.228,1.2197,2.5778-3.6559,6.9132-1.956,7.7106-5.6725l7.7301-36.0249c-12.5825-.4486-8.865-.7386-18.3598,5.3222.6968-3.1806,1.567-5.5862,2.8749-9.0993l31.738-.0828c7.0868-.0185,13.8098-1.5212,21.1284-3.0476l-5.7788,27.9156c4.0625-5.3566,13.0889-12.1136,18.3191-7.4611,1.1707,1.0414,2.0838,4.1574,1.6743,5.9331l-3.6209,15.703c-.1837.7965.3191,2.9109,1.0824,2.9481.7637.0372,2.5677-.3857,3.2209-.7941l1.3563-.8479c.2635-.1648,1.0641.2543,1.1636.5497.7958,2.361-11.0132,8.9134-14.967,4.291-.7521-.8793-1.4762-3.5009-1.194-4.7179l3.3602-14.4934c.1756-.7574-.1544-2.6141-.3877-3.2156-.2917-.7521-2.6176-.7808-3.2696-.296-8.1181,6.0362-8.4844,12.8608-10.8623,23.506Z"/>
    <path class="cls-1" d="M85.9239,42.1488c7.2112-1.48,21.3365-4.7406,19.2549-13.6456-.4245-1.816-3.1756-3.819-5.5017-4.0375-11.6421-1.0935-22.311,6.5139-24.0281,17.8374-.8745,5.7672,1.3311,10.8884,7.169,12.311,7.4945,1.8262,17.9251-1.6109,19.6019-6.1995.1277-.3493-.5074-1.2599-.8446-1.103-3.7179,1.7299-7.1145,4.6831-12.4511,3.4133-3.6517-.8689-5.3987-7.0586-3.2003-8.5761ZM96.2551,27.3902c.9525.4483,1.5544,2.6808,1.1356,4.1466-1.549,5.4213-6.3129,7.3222-11.4581,7.6159.4689-5.7089,5.7132-13.9322,10.3225-11.7625Z"/>
  </g>
</svg>